<?xml version="1.0" encoding="iso-8859-1"?>
<!-- Generator: Adobe Illustrator 19.0.0, SVG Export Plug-In . SVG Version: 6.00 Build 0)  -->
<svg version="1.1" id="Layer_1" xmlns="http://www.w3.org/2000/svg" xmlns:xlink="http://www.w3.org/1999/xlink" x="0px" y="0px"
	 viewBox="0 0 512 512" style="enable-background:new 0 0 512 512;" xml:space="preserve">
<g>
	<path style="fill:#A3682D;" d="M430.933,349.867h-17.067c-4.713,0-8.533-3.821-8.533-8.533c0-4.713,3.821-8.533,8.533-8.533h17.067
		c14.115,0,25.6-11.485,25.6-25.6V102.4c0-14.115-11.485-25.6-25.6-25.6H285.867c-4.713,0-8.533-3.821-8.533-8.533
		s3.821-8.533,8.533-8.533h145.067c23.526,0,42.667,19.14,42.667,42.667v204.8C473.6,330.726,454.46,349.867,430.933,349.867z"/>
	<path style="fill:#A3682D;" d="M174.933,42.667h-51.2c-4.713,0-8.533-3.821-8.533-8.533l0,0c0-4.713,3.821-8.533,8.533-8.533h51.2
		V42.667z"/>
	<path style="fill:#A3682D;" d="M174.933,93.867h-51.2c-4.713,0-8.533-3.821-8.533-8.533l0,0c0-4.713,3.821-8.533,8.533-8.533h51.2
		V93.867z"/>
</g>
<path style="fill:#FFC552;" d="M243.2,119.467h-68.267c-4.713,0-8.533-3.821-8.533-8.533V8.533c0-4.713,3.821-8.533,8.533-8.533
	H243.2c28.277,0,51.2,22.923,51.2,51.2v17.067C294.4,96.544,271.477,119.467,243.2,119.467z"/>
<path style="fill:#FC9C47;" d="M260.267,102.4h-72.533c-2.356,0-4.267-1.91-4.267-4.267V0h-8.533c-4.713,0-8.533,3.821-8.533,8.533
	v102.4c0,4.713,3.821,8.533,8.533,8.533H243.2c18.512,0,34.727-9.826,43.721-24.546C279.156,99.664,270.032,102.4,260.267,102.4z"/>
<path style="fill:#DB883D;" d="M217.6,93.867c-7.461,0-11.289-9.313-6.034-14.567l11.034-11.033H217.6
	c-3.147,0-6.038-1.732-7.524-4.507c-1.485-2.774-1.322-6.142,0.423-8.759l17.067-25.6c2.612-3.921,7.908-4.983,11.834-2.367
	c3.922,2.614,4.981,7.911,2.367,11.834L233.545,51.2h9.655c3.451,0,6.562,2.079,7.884,5.267c1.322,3.188,0.592,6.859-1.849,9.299
	l-25.6,25.6C221.968,93.034,219.785,93.867,217.6,93.867z"/>
<path style="fill:#66BF00;" d="M413.867,290.133h-51.2v-51.2H396.8c14.139,0,25.6,11.461,25.6,25.6V281.6
	C422.4,286.313,418.579,290.133,413.867,290.133z"/>
<path style="fill:#58AB23;" d="M379.733,238.933h-17.067v51.2h51.2c4.713,0,8.533-3.821,8.533-8.533h-42.667V238.933z"/>
<path style="fill:#66BF00;" d="M72.533,290.133h51.2v-51.2H89.6c-14.139,0-25.6,11.461-25.6,25.6V281.6
	C64,286.313,67.821,290.133,72.533,290.133z"/>
<path style="fill:#58AB23;" d="M106.667,238.933V281.6H64c0,4.713,3.821,8.533,8.533,8.533h51.2v-51.2H106.667z"/>
<path style="fill:#66BF00;" d="M371.2,315.733h-256V179.2c0-23.564,19.103-42.667,42.667-42.667h170.667
	c23.564,0,42.667,19.103,42.667,42.667V315.733z"/>
<path style="fill:#E8E6D9;" d="M345.6,315.733H140.8v-128c0-14.139,11.461-25.6,25.6-25.6H320c14.139,0,25.6,11.461,25.6,25.6
	V315.733z"/>
<g>
	<polygon style="fill:#DDDAC5;" points="291.2,315.733 345.6,315.733 345.6,261.333 	"/>
	<path style="fill:#DDDAC5;" d="M166.4,162.133c-14.139,0-25.6,11.461-25.6,25.6v102.4l128-128H166.4z"/>
	<path style="fill:#DDDAC5;" d="M344.945,181.988L211.2,315.733h49.067L345.6,230.4v-42.667
		C345.6,185.757,345.369,183.836,344.945,181.988z"/>
</g>
<path style="fill:#66BF00;" d="M422.4,418.133H64v-76.8c0-23.564,19.103-42.667,42.667-42.667h273.067
	c23.564,0,42.667,19.103,42.667,42.667V418.133z"/>
<rect x="64" y="401.067" style="fill:#58AB23;" width="358.4" height="17.067"/>
<circle style="fill:#8C823F;" cx="123.733" cy="358.4" r="34.133"/>
<circle style="fill:#E8E6D9;" cx="123.733" cy="358.4" r="17.067"/>
<circle style="fill:#8C823F;" cx="362.667" cy="358.4" r="34.133"/>
<circle style="fill:#E8E6D9;" cx="362.667" cy="358.4" r="17.067"/>
<g>
	<path style="fill:#8C823F;" d="M302.933,341.333H183.467c-4.713,0-8.533-3.821-8.533-8.533s3.821-8.533,8.533-8.533h119.467
		c4.713,0,8.533,3.821,8.533,8.533S307.646,341.333,302.933,341.333z"/>
	<path style="fill:#8C823F;" d="M302.933,366.933H183.467c-4.713,0-8.533-3.821-8.533-8.533s3.821-8.533,8.533-8.533h119.467
		c4.713,0,8.533,3.821,8.533,8.533S307.646,366.933,302.933,366.933z"/>
	<path style="fill:#8C823F;" d="M302.933,392.533H183.467c-4.713,0-8.533-3.821-8.533-8.533c0-4.713,3.821-8.533,8.533-8.533
		h119.467c4.713,0,8.533,3.821,8.533,8.533C311.467,388.713,307.646,392.533,302.933,392.533z"/>
</g>
<path style="fill:#A39B65;" d="M132.267,512h-51.2C71.641,512,64,504.359,64,494.933V435.2h85.333v59.733
	C149.333,504.359,141.693,512,132.267,512z"/>
<rect x="64" y="435.2" style="fill:#8C823F;" width="85.333" height="34.133"/>
<path style="fill:#A39B65;" d="M405.333,512h-51.2c-9.426,0-17.067-7.641-17.067-17.067V435.2H422.4v59.733
	C422.4,504.359,414.759,512,405.333,512z"/>
<rect x="337.067" y="435.2" style="fill:#8C823F;" width="85.333" height="34.133"/>
<path style="fill:#DDDAC5;" d="M430.933,452.267H55.467c-9.426,0-17.067-7.641-17.067-17.067v-8.533
	c0-9.426,7.641-17.067,17.067-17.067h375.467c9.426,0,17.067,7.641,17.067,17.067v8.533
	C448,444.626,440.359,452.267,430.933,452.267z"/>
<path style="fill:#F4F3EC;" d="M430.933,409.6H55.467c-9.425,0-17.067,7.641-17.067,17.067H448
	C448,417.241,440.358,409.6,430.933,409.6z"/>
<g>
</g>
<g>
</g>
<g>
</g>
<g>
</g>
<g>
</g>
<g>
</g>
<g>
</g>
<g>
</g>
<g>
</g>
<g>
</g>
<g>
</g>
<g>
</g>
<g>
</g>
<g>
</g>
<g>
</g>
</svg>
